<svg width="40" height="34" viewBox="0 0 40 34" fill="none" xmlns="http://www.w3.org/2000/svg">
<path d="M5.41641 33.6667V14.6167L1.38516 17.7208L0.128906 16.0708L19.9997 0.854172L39.8706 16.0708L38.6143 17.7083L34.5831 14.6167V33.6667H5.41641ZM11.6664 22.7708C11.2359 22.7708 10.8609 22.6111 10.5414 22.2917C10.222 21.9722 10.0622 21.5972 10.0622 21.1667C10.0622 20.7361 10.222 20.3611 10.5414 20.0417C10.8609 19.7222 11.2359 19.5625 11.6664 19.5625C12.097 19.5625 12.472 19.7222 12.7914 20.0417C13.1109 20.3611 13.2706 20.7361 13.2706 21.1667C13.2706 21.5972 13.1109 21.9722 12.7914 22.2917C12.472 22.6111 12.097 22.7708 11.6664 22.7708ZM19.9997 22.7708C19.5692 22.7708 19.1942 22.6111 18.8747 22.2917C18.5553 21.9722 18.3956 21.5972 18.3956 21.1667C18.3956 20.7361 18.5553 20.3611 18.8747 20.0417C19.1942 19.7222 19.5692 19.5625 19.9997 19.5625C20.4303 19.5625 20.8053 19.7222 21.1247 20.0417C21.4442 20.3611 21.6039 20.7361 21.6039 21.1667C21.6039 21.5972 21.4442 21.9722 21.1247 22.2917C20.8053 22.6111 20.4303 22.7708 19.9997 22.7708ZM28.3331 22.7708C27.9025 22.7708 27.5275 22.6111 27.2081 22.2917C26.8886 21.9722 26.7289 21.5972 26.7289 21.1667C26.7289 20.7361 26.8886 20.3611 27.2081 20.0417C27.5275 19.7222 27.9025 19.5625 28.3331 19.5625C28.7636 19.5625 29.1386 19.7222 29.4581 20.0417C29.7775 20.3611 29.9372 20.7361 29.9372 21.1667C29.9372 21.5972 29.7775 21.9722 29.4581 22.2917C29.1386 22.6111 28.7636 22.7708 28.3331 22.7708Z" fill="#CDA274"/>
</svg>
